<svg width="18" height="26" viewBox="0 0 18 26" fill="none" xmlns="http://www.w3.org/2000/svg">
<path d="M8.92108 13.1619C8.92108 12.101 9.34251 11.0836 10.0927 10.3335C10.8428 9.5833 11.8602 9.16187 12.9211 9.16187C13.982 9.16187 14.9994 9.5833 15.7496 10.3335C16.4997 11.0836 16.9212 12.101 16.9212 13.1619C16.9212 14.2228 16.4997 15.2402 15.7496 15.9904C14.9994 16.7405 13.982 17.1619 12.9211 17.1619C11.8602 17.1619 10.8428 16.7405 10.0927 15.9904C9.34251 15.2402 8.92108 14.2228 8.92108 13.1619V13.1619Z" stroke="white" stroke-width="1.12001"/>
<path d="M0.921021 21.1622C0.921021 20.1013 1.34245 19.0838 2.09261 18.3337C2.84276 17.5835 3.86018 17.1621 4.92106 17.1621H8.9211V21.1622C8.9211 22.223 8.49967 23.2405 7.74952 23.9906C6.99936 24.7408 5.98194 25.1622 4.92106 25.1622C3.86018 25.1622 2.84276 24.7408 2.09261 23.9906C1.34245 23.2405 0.921021 22.223 0.921021 21.1622Z" stroke="white" stroke-width="1.12001"/>
<path d="M8.92108 1.16211V9.16219H12.9211C13.982 9.16219 14.9994 8.74076 15.7496 7.99061C16.4997 7.24045 16.9212 6.22303 16.9212 5.16215C16.9212 4.10127 16.4997 3.08385 15.7496 2.33369C14.9994 1.58354 13.982 1.16211 12.9211 1.16211L8.92108 1.16211Z" stroke="white" stroke-width="1.12001"/>
<path d="M0.921021 5.16215C0.921021 6.22303 1.34245 7.24045 2.09261 7.99061C2.84276 8.74076 3.86018 9.16219 4.92106 9.16219H8.9211V1.16211H4.92106C3.86018 1.16211 2.84276 1.58354 2.09261 2.33369C1.34245 3.08385 0.921021 4.10127 0.921021 5.16215Z" stroke="white" stroke-width="1.12001"/>
<path d="M0.921021 13.1619C0.921021 14.2228 1.34245 15.2402 2.09261 15.9904C2.84276 16.7405 3.86018 17.1619 4.92106 17.1619H8.9211V9.16187H4.92106C3.86018 9.16187 2.84276 9.5833 2.09261 10.3335C1.34245 11.0836 0.921021 12.101 0.921021 13.1619Z" stroke="white" stroke-width="1.12001"/>
</svg>
