<svg width="24" height="24" viewBox="0 0 24 24" fill="none" xmlns="http://www.w3.org/2000/svg">
<path d="M23.3861 2.32332V22.0012C23.3861 22.4511 23.2074 22.8826 22.8892 23.2007C22.5711 23.5188 22.1396 23.6975 21.6897 23.6975H2.01186C1.56195 23.6975 1.13048 23.5188 0.812345 23.2007C0.494215 22.8826 0.315491 22.4511 0.315491 22.0012L0.315491 2.32332C0.315491 1.87342 0.494215 1.44194 0.812345 1.12381C1.13048 0.805677 1.56195 0.626953 2.01186 0.626953L21.6897 0.626953C22.1396 0.626953 22.5711 0.805677 22.8892 1.12381C23.2074 1.44194 23.3861 1.87342 23.3861 2.32332ZM7.10096 9.44806H3.70823V20.3048H7.10096V9.44806ZM7.40631 5.71606C7.40809 5.45942 7.35932 5.20495 7.26276 4.96717C7.1662 4.72939 7.02375 4.51296 6.84354 4.33023C6.66333 4.1475 6.4489 4.00206 6.21248 3.90221C5.97607 3.80235 5.7223 3.75005 5.46566 3.74827H5.40459C4.8827 3.74827 4.38219 3.95559 4.01316 4.32462C3.64413 4.69365 3.43681 5.19417 3.43681 5.71606C3.43681 6.23794 3.64413 6.73846 4.01316 7.10749C4.38219 7.47652 4.8827 7.68384 5.40459 7.68384C5.66124 7.69016 5.91662 7.64584 6.15614 7.55342C6.39566 7.461 6.61462 7.32229 6.80051 7.14522C6.9864 6.96815 7.13558 6.75619 7.23953 6.52145C7.34347 6.2867 7.40014 6.03378 7.40631 5.77712V5.71606ZM19.9934 13.7093C19.9934 10.4455 17.917 9.17665 15.8542 9.17665C15.1788 9.14283 14.5064 9.28668 13.9039 9.59386C13.3015 9.90104 12.7901 10.3608 12.4208 10.9273H12.3258V9.44806H9.1366V20.3048H12.5293V14.5304C12.4803 13.939 12.6666 13.3521 13.0477 12.8973C13.4289 12.4424 13.9741 12.1564 14.565 12.1012H14.6939C15.7728 12.1012 16.5735 12.7797 16.5735 14.4897V20.3048H19.9662L19.9934 13.7093Z" fill="white"/>
</svg>
